<svg width="32" height="32" viewBox="0 0 32 32" fill="none" xmlns="http://www.w3.org/2000/svg">
<g clip-path="url(#clip0_207_2596)">
<path fill-rule="evenodd" clip-rule="evenodd" d="M16.0128 0C7.15813 0 0 7.21091 0 16.1318C0 23.2627 4.58646 29.2989 10.9491 31.4353C11.7446 31.5959 12.036 31.0882 12.036 30.6611C12.036 30.2871 12.0098 29.0052 12.0098 27.6696C7.55539 28.6312 6.62781 25.7465 6.62781 25.7465C5.91196 23.8769 4.8513 23.3964 4.8513 23.3964C3.39339 22.4082 4.9575 22.4082 4.9575 22.4082C6.57471 22.5151 7.4233 24.0641 7.4233 24.0641C8.85466 26.5211 11.1612 25.8268 12.0891 25.3994C12.2215 24.3578 12.646 23.6367 13.0966 23.2362C9.54396 22.8622 5.80609 21.4734 5.80609 15.277C5.80609 13.5142 6.44196 12.072 7.44952 10.9504C7.29055 10.5499 6.73367 8.89367 7.60882 6.67697C7.60882 6.67697 8.96086 6.24956 12.0094 8.33286C13.3146 7.97974 14.6607 7.80011 16.0128 7.79859C17.3648 7.79859 18.7431 7.98575 20.0158 8.33286C23.0647 6.24956 24.4168 6.67697 24.4168 6.67697C25.2919 8.89367 24.7347 10.5499 24.5757 10.9504C25.6099 12.072 26.2195 13.5142 26.2195 15.277C26.2195 21.4734 22.4816 22.8353 18.9024 23.2362C19.4858 23.7435 19.9893 24.7049 19.9893 26.2274C19.9893 28.3906 19.9631 30.1268 19.9631 30.6608C19.9631 31.0882 20.2548 31.5959 21.0499 31.4356C27.4126 29.2986 31.999 23.2627 31.999 16.1318C32.0253 7.21091 24.8409 0 16.0128 0Z" fill="#24292F"/>
</g>
<defs>
<clipPath id="clip0_207_2596">
<rect width="31.9991" height="31.9991" fill="white"/>
</clipPath>
</defs>
</svg>
