<svg width="32" height="32" viewBox="0 0 32 32" fill="none" xmlns="http://www.w3.org/2000/svg">
<g clip-path="url(#clip0_207_2592)">
<path d="M29.637 0H2.36216C1.73567 0 1.13485 0.24887 0.69186 0.69186C0.24887 1.13485 0 1.73567 0 2.36216V29.637C0 30.2634 0.24887 30.8643 0.69186 31.3073C1.13485 31.7503 1.73567 31.9991 2.36216 31.9991H29.637C30.2634 31.9991 30.8643 31.7503 31.3073 31.3073C31.7503 30.8643 31.9991 30.2634 31.9991 29.637V2.36216C31.9991 1.73567 31.7503 1.13485 31.3073 0.69186C30.8643 0.24887 30.2634 0 29.637 0ZM9.53752 27.2592H4.72654V11.9774H9.53752V27.2592ZM7.12869 9.85973C6.58297 9.85666 6.05039 9.69199 5.59816 9.38653C5.14593 9.08106 4.79432 8.64847 4.58771 8.14336C4.3811 7.63825 4.32874 7.08326 4.43725 6.54843C4.54576 6.01359 4.81027 5.52288 5.1974 5.13823C5.58452 4.75358 6.07692 4.49223 6.61244 4.38716C7.14796 4.28209 7.70261 4.33801 8.20638 4.54786C8.71015 4.75771 9.14047 5.11208 9.44303 5.56626C9.74559 6.02044 9.90682 6.55407 9.90639 7.09981C9.91154 7.46517 9.84308 7.82784 9.70508 8.16618C9.56709 8.50453 9.36238 8.81162 9.10318 9.06917C8.84397 9.32672 8.53556 9.52945 8.19634 9.66527C7.85712 9.80109 7.49402 9.86722 7.12869 9.85973ZM27.2704 27.2726H22.4616V18.9239C22.4616 16.4618 21.415 15.7018 20.0639 15.7018C18.6373 15.7018 17.2373 16.7773 17.2373 18.9861V27.2726H12.4263V11.9886H17.0529V14.1063H17.1151C17.5795 13.1663 19.2061 11.5597 21.6883 11.5597C24.3727 11.5597 27.2726 13.153 27.2726 17.8195L27.2704 27.2726Z" fill="#0A66C2"/>
</g>
<defs>
<clipPath id="clip0_207_2592">
<rect width="31.9991" height="31.9991" fill="white"/>
</clipPath>
</defs>
</svg>
