<svg width="32" height="32" viewBox="0 0 32 32" fill="none" xmlns="http://www.w3.org/2000/svg">
<g clip-path="url(#clip0_207_2594)">
<path d="M16 13.0898V19.286H24.6106C24.2325 21.2787 23.0979 22.966 21.3961 24.1005L26.5887 28.1295C29.6141 25.337 31.3595 21.2352 31.3595 16.3626C31.3595 15.2281 31.2577 14.1372 31.0686 13.09L16 13.0898Z" fill="#4285F4"/>
<path d="M7.02747 19.043L5.85635 19.9394L1.71094 23.1684C4.34359 28.39 9.7394 31.9973 15.9937 31.9973C20.3135 31.9973 23.9352 30.5718 26.5824 28.1283L21.3899 24.0993C19.9644 25.0593 18.1463 25.6411 15.9937 25.6411C11.8339 25.6411 8.29952 22.834 7.03401 19.0522L7.02747 19.043Z" fill="#34A853"/>
<path d="M1.71619 8.82812C0.625372 10.9807 0 13.4098 0 15.9987C0 18.5877 0.625372 21.0168 1.71619 23.1694C1.71619 23.1838 7.03977 19.0386 7.03977 19.0386C6.71978 18.0786 6.53064 17.0605 6.53064 15.9986C6.53064 14.9366 6.71978 13.9186 7.03977 12.9586L1.71619 8.82812Z" fill="#FBBC05"/>
<path d="M15.9941 6.37073C18.3504 6.37073 20.4448 7.18523 22.1175 8.75612L26.6992 4.17448C23.921 1.58551 20.314 0 15.9941 0C9.73973 0 4.34359 3.59262 1.71094 8.82886L7.03435 12.9597C8.2997 9.1779 11.8342 6.37073 15.9941 6.37073Z" fill="#EA4335"/>
</g>
<defs>
<clipPath id="clip0_207_2594">
<rect width="31.9991" height="31.9991" fill="white"/>
</clipPath>
</defs>
</svg>
