<svg width="114" height="29" viewBox="0 0 114 29" fill="none" xmlns="http://www.w3.org/2000/svg">
<path d="M27.9745 5.60064V19.2064H18.6051V15.0036C18.6051 12.1885 16.3291 9.90406 13.5233 9.90406H9.33594V0.5H22.8927C25.6986 0.5 27.9745 2.78329 27.9745 5.60064Z" fill="#00E79F"/>
<path d="M18.6007 19.207V28.5049L9.33594 19.207H18.6007Z" fill="#00E79F"/>
<path d="M18.5988 15.0019C18.5988 12.1856 16.3239 9.90234 13.518 9.90234H9.33068L9.33398 9.90566H0.0703125V19.2036H9.33398V9.90677L18.5977 19.2047V15.0019H18.5988Z" fill="black"/>
<path d="M49.114 7.3125L47.0141 14.8923L45.0716 7.58802H41.685L39.7425 14.8923L37.603 7.3125H34.1094L38.1716 21.8438H40.7618L43.3778 14.3621L45.974 21.8438H48.584L52.6462 7.3125H49.114ZM56.0755 11.8685C53.2881 11.8685 51.0119 14.146 51.0119 16.9349C51.0119 19.7238 53.2881 22.0013 56.0755 22.0013C58.8628 22.0013 61.1391 19.7238 61.1391 16.9349C61.1391 14.146 58.8628 11.8685 56.0755 11.8685ZM56.0755 18.82C55.0354 18.82 54.1915 17.9756 54.1915 16.9349C54.1915 15.8943 55.0354 15.0499 56.0755 15.0499C57.1155 15.0499 57.9595 15.8943 57.9595 16.9349C57.9595 17.9756 57.1155 18.82 56.0755 18.82ZM82.7188 8.90319H79.5392V17.7C79.5392 20.5673 80.9914 21.8428 83.5232 21.8428H85.3873V18.6614H83.6212C83.0715 18.6614 82.7188 18.2689 82.7188 17.7387V14.7932H85.5062V12.0241H82.7188V8.90319ZM107.506 12.0251H104.836V12.477C104.091 12.0836 103.306 11.8675 102.442 11.8675C99.656 11.8675 97.3995 14.1252 97.3995 16.9141C97.3995 19.703 99.656 22.0004 102.442 22.0004C103.345 22.0004 104.13 21.7447 104.876 21.371V21.8428H108.122V18.9667H107.506V12.0251ZM102.52 18.819C101.481 18.819 100.655 17.9746 100.655 16.9141C100.655 15.8537 101.48 15.0281 102.52 15.0281C103.56 15.0281 104.405 15.8725 104.405 16.9141C104.405 17.9557 103.561 18.819 102.52 18.819ZM113.335 18.6614C112.864 18.6614 112.628 18.3472 112.628 17.8953V8.09843H108.833V10.9746H109.449V17.8566C109.449 20.6257 110.45 21.8428 113.237 21.8428H114.002V18.6614H113.335ZM64.5594 12.476V12.0241H61.5105V14.9002H62.1266V21.8418H65.2666V16.1867C65.2666 15.5395 65.7976 15.0281 66.4444 15.0281H67.739V12.0241H66.3265C65.7173 12.0241 65.1289 12.1222 64.5594 12.476ZM78.5536 12.0241H74.7857L72.1033 14.6356V8.09843H68.3095V10.9746H68.9247V21.8428H72.1043V19.035L72.7214 18.4364L75.1987 21.8428H79.045L74.8451 16.3056L78.5536 12.0241ZM93.1591 17.6594C93.1591 18.3076 92.6291 18.8378 91.9813 18.8378C91.3335 18.8378 90.8046 18.3066 90.8046 17.6594V12.0241H87.0277V14.9002H87.6458V17.6594C87.6458 20.0549 89.5882 21.9994 91.9823 21.9994C94.3764 21.9994 96.3199 20.0549 96.3199 17.6594V12.0241H93.1601L93.1591 17.6594Z" fill="black"/>
</svg>
